# xmcd
#
# Track frame offsets: 
#        180
#        20995
#        37842
#        52815
#        65857
#        82336
#        96229
#        110512
#        130114
#        150784
#
# Disc length: 2215 seconds
#
# Revision: 0
# Processed by: cddbd v1.5.2PL0 Copyright (c) Steve Scherf et al.
# Submitted via: ExactAudioCopy v0.95b4
#
DISCID=7f08a50a
DTITLE=James J. Robinson - Straight and True
DYEAR=1994
DGENRE=Country
TTITLE0=Love Is Stronger
TTITLE1=Midnight Rodeo
TTITLE2=Reach For The Sky
TTITLE3=So Rich A Man
TTITLE4=One Too Many Turns
TTITLE5=It Ain't Too Late
TTITLE6=Meme's Picture
TTITLE7=Highway
TTITLE8=In Memory Of You
TTITLE9=Dear Dad
EXTD=
EXTT0=
EXTT1=
EXTT2=
EXTT3=
EXTT4=
EXTT5=
EXTT6=
EXTT7=
EXTT8=
EXTT9=
PLAYORDER=
